HIERARCHY
ROOT Hips
{
	OFFSET 0.000000 0.000000 0.000000
	CHANNELS 6 Xposition Yposition Zposition Zrotation Yrotation Xrotation 
	JOINT LHipJoint
	{
		OFFSET 0.000000 0.000000 0.000000
		CHANNELS 3 Zrotation Yrotation Xrotation
		JOINT LeftUpLeg
		{
			OFFSET 1.363060 -1.794630 0.839290
			CHANNELS 3 Zrotation Yrotation Xrotation
			JOINT LeftLeg
			{
				OFFSET 2.448110 -6.726130 0.000000
				CHANNELS 3 Zrotation Yrotation Xrotation
				JOINT LeftFoot
				{
					OFFSET 2.562200 -7.039590 0.000000
					CHANNELS 3 Zrotation Yrotation Xrotation
					JOINT LeftToeBase
					{
						OFFSET 0.157640 -0.433110 2.322550
						CHANNELS 3 Zrotation Yrotation Xrotation
						End Site
						{
							OFFSET 0.000000 0.000000 0.000000
						}
					}
				}
			}
		}
	}
	JOINT RHipJoint
	{
		OFFSET 0.000000 0.000000 0.000000
		CHANNELS 3 Zrotation Yrotation Xrotation
		JOINT RightUpLeg
		{
			OFFSET -1.305520 -1.794630 0.839290
			CHANNELS 3 Zrotation Yrotation Xrotation
			JOINT RightLeg
			{
				OFFSET -2.542530 -6.985550 0.000000
				CHANNELS 3 Zrotation Yrotation Xrotation
				JOINT RightFoot
				{
					OFFSET -2.568260 -7.056230 0.000000
					CHANNELS 3 Zrotation Yrotation Xrotation
					JOINT RightToeBase
					{
						OFFSET -0.164730 -0.452590 2.363150
						CHANNELS 3 Zrotation Yrotation Xrotation
						End Site
						{
							OFFSET 0.000000 0.000000 0.000000
						}
					}
				}
			}
		}
	}
	JOINT LowerBack
	{
		OFFSET 0.000000 0.000000 0.000000
		CHANNELS 3 Zrotation Yrotation Xrotation
		JOINT Spine
		{
			OFFSET 0.028270 2.035590 -0.193380
			CHANNELS 3 Zrotation Yrotation Xrotation
			JOINT Spine1
			{
				OFFSET 0.056720 2.048850 -0.042750
				CHANNELS 3 Zrotation Yrotation Xrotation
				JOINT Neck
				{
					OFFSET 0.000000 0.000000 0.000000
					CHANNELS 3 Zrotation Yrotation Xrotation
					JOINT Neck1
					{
						OFFSET -0.054170 1.746240 0.172020
						CHANNELS 3 Zrotation Yrotation Xrotation
						JOINT Head
						{
							OFFSET 0.104070 1.761360 -0.123970
							CHANNELS 3 Zrotation Yrotation Xrotation
							End Site
							{
								OFFSET 0.000000 0.000000 0.000000
							}
						}
					}
				}
				JOINT LeftShoulder
				{
					OFFSET 0.000000 0.000000 0.000000
					CHANNELS 3 Zrotation Yrotation Xrotation
					JOINT LeftArm
					{
						OFFSET 3.362410 1.200890 -0.311210
						CHANNELS 3 Zrotation Yrotation Xrotation
						JOINT LeftForeArm
						{
							OFFSET 4.983000 -0.000000 -0.000000
							CHANNELS 3 Zrotation Yrotation Xrotation
							JOINT LeftHand
							{
								OFFSET 3.483560 -0.000000 -0.000000
								CHANNELS 3 Zrotation Yrotation Xrotation
								JOINT LeftFingerBase
								{
									OFFSET 0.000000 0.000000 0.000000
									CHANNELS 3 Zrotation Yrotation Xrotation
									JOINT LeftHandIndex1
									{
										OFFSET 0.715260 -0.000000 -0.000000
										CHANNELS 3 Zrotation Yrotation Xrotation
										End Site
										{
											OFFSET 0.000000 0.000000 0.000000
										}
									}
								}
								JOINT LThumb
								{
									OFFSET 0.000000 0.000000 0.000000
									CHANNELS 3 Zrotation Yrotation Xrotation
									End Site
									{
										OFFSET 0.000000 0.000000 0.000000
									}
								}
							}
						}
					}
				}
				JOINT RightShoulder
				{
					OFFSET 0.000000 0.000000 0.000000
					CHANNELS 3 Zrotation Yrotation Xrotation
					JOINT RightArm
					{
						OFFSET -3.136600 1.374050 -0.404650
						CHANNELS 3 Zrotation Yrotation Xrotation
						JOINT RightForeArm
						{
							OFFSET -5.241900 -0.000000 -0.000000
							CHANNELS 3 Zrotation Yrotation Xrotation
							JOINT RightHand
							{
								OFFSET -3.444170 -0.000000 -0.000000
								CHANNELS 3 Zrotation Yrotation Xrotation
								JOINT RightFingerBase
								{
									OFFSET 0.000000 0.000000 0.000000
									CHANNELS 3 Zrotation Yrotation Xrotation
									JOINT RightHandIndex1
									{
										OFFSET -0.622530 -0.000000 -0.000000
										CHANNELS 3 Zrotation Yrotation Xrotation
										End Site
										{
											OFFSET 0.000000 0.000000 0.000000
										}
									}
								}
								JOINT RThumb
								{
									OFFSET 0.000000 0.000000 0.000000
									CHANNELS 3 Zrotation Yrotation Xrotation
									End Site
									{
										OFFSET 0.000000 0.000000 0.000000
									}
								}
							}
						}
					}
				}
			}
		}
	}
}
MOTION
Frames: 11
Frame Time: 0.008333
0.645935 18.062801 0.107706 -3.921800 -0.067242 8.796646 5.075463 2.981864 2.331982 -16.411127 -13.067211 -44.044545 13.463144 19.418424 71.016441 0.431340 -2.048156 6.206761 0.284900 -3.432500 -9.485200 -6.728480 -3.665155 -1.499836 33.896437 -3.819104 12.847469 -2.015613 -5.006861 17.843653 -0.204534 -9.644818 22.604303 -0.211500 2.960900 -8.170000 8.646674 3.242806 9.216412 2.184139 5.098078 -0.446547 -1.388634 2.740274 -6.337526 -7.287599 -4.724585 -17.876669 4.329441 -4.938367 7.418964 2.756600 -2.415300 7.899500 -3.582405 3.375763 -2.986878 -82.003183 33.981726 40.043992 112.196334 -62.508353 -81.286843 -0.058873 -0.763408 -29.800257 14.282838 5.669345 1.653200 -7.125000 0.000000 0.000000 -10.103200 36.339800 2.178900 1.449641 -2.550379 -1.522697 85.208459 -8.253366 41.100563 -141.734359 48.043396 -103.655306 1.335653 -1.339907 -4.609749 -16.396781 26.952469 -8.551400 7.125000 0.000000 0.000000 7.561400 -0.772700 7.524800 
0.650112 18.136593 0.564484 -3.784076 0.109305 8.656425 5.036879 2.956142 2.333203 -16.902113 -13.167560 -43.426530 12.021706 18.843901 66.568832 0.440955 -2.139481 6.277539 0.289300 -3.458700 -9.558700 -6.669941 -3.612235 -1.569508 33.297575 -4.256975 14.490453 -1.888557 -4.631694 16.549343 -0.419356 -11.180349 25.338075 -0.041000 1.307000 -3.594000 8.811330 3.234182 9.474807 1.922531 5.163557 -0.797441 -1.987701 2.724178 -7.053431 -7.111206 -4.705294 -17.425244 4.593211 -5.035014 7.931540 2.805900 -2.441100 8.013800 -3.584535 3.341032 -3.047026 -81.505684 35.433883 39.797880 113.085329 -62.372412 -81.907177 -0.117690 -0.736702 -30.008932 14.581228 4.016372 1.236600 -7.125000 0.000000 0.000000 -9.574300 34.619900 2.468500 1.412480 -2.500602 -1.502556 85.615479 -9.380276 41.376440 -141.292600 48.265504 -103.408623 1.307199 -1.307774 -3.572411 -16.207112 26.026377 -8.189300 7.125000 0.000000 0.000000 7.580700 -1.792000 7.405700 
0.657471 18.201336 1.024843 -3.639917 0.302103 8.595344 4.989779 2.911996 2.290916 -17.391220 -13.285196 -42.685507 10.591366 18.144270 62.011412 0.443356 -2.219194 6.104142 0.326600 -3.673200 -10.159100 -6.626705 -3.568114 -1.647165 32.770509 -4.559877 15.870095 -1.823947 -4.422827 15.778092 -0.714922 -12.011332 27.817043 -0.024900 1.018300 -2.799200 8.511269 3.435334 8.554149 2.018927 5.251314 -0.540326 -1.549406 2.814795 -6.090689 -7.547023 -4.913287 -17.460825 4.786285 -5.193268 7.914490 2.926400 -2.517100 8.030800 -3.576260 3.382988 -3.050638 -81.893211 35.338115 39.846129 113.726650 -62.285905 -82.068669 -0.038485 -1.147796 -30.070266 23.844892 16.005931 7.569300 -7.125000 0.000000 0.000000 -3.338200 48.502400 -0.288700 1.436014 -2.522529 -1.493342 85.037996 -9.021459 41.407666 -140.624949 48.729312 -102.937478 1.306416 -1.294583 -3.351264 -16.358213 25.856789 -8.214600 7.125000 0.000000 0.000000 7.470000 -1.957100 7.273300 
0.667516 18.255039 1.483213 -3.399821 0.524791 8.699615 4.950676 2.872153 2.262613 -17.866203 -13.676180 -42.032747 9.188544 17.323077 57.366091 0.451907 -2.269304 6.224602 0.370300 -3.908700 -10.820000 -6.582667 -3.529580 -1.700749 32.253119 -4.671726 16.928177 -1.826445 -4.379589 15.511812 -1.063431 -12.601427 30.198892 0.000000 0.006000 -0.016600 8.300304 3.561286 7.842646 1.998261 5.294783 -0.458522 -1.399289 2.858908 -5.534510 -7.854904 -5.029438 -17.479589 4.976496 -5.269292 7.907314 3.037300 -2.548600 8.046100 -3.576863 3.414795 -3.043708 -82.004137 35.501895 39.760506 114.222557 -62.153076 -82.647654 -0.053072 -0.825511 -30.274983 15.824363 7.838365 2.481900 -7.125000 0.000000 0.000000 -9.144000 38.708800 1.431200 1.445291 -2.534450 -1.491331 84.643862 -8.937782 41.603913 -139.976817 49.151082 -102.481449 1.318277 -1.290026 -3.692978 -16.459917 26.085918 -8.330300 7.125000 0.000000 0.000000 7.428500 -1.706700 7.265800 
0.674875 18.302677 1.937904 -3.194379 0.787388 8.789460 4.912172 2.838592 2.238062 -18.235992 -14.098247 -41.332931 7.854086 16.388639 52.729992 0.481798 -2.389640 6.898805 0.486100 -4.470500 -12.404400 -6.540585 -3.487635 -1.724124 32.005026 -4.408197 17.941957 -1.865991 -4.447592 15.614582 -1.189953 -13.588982 31.372559 -0.081300 -1.839000 5.061000 8.155247 3.644379 7.495055 1.920837 5.352560 -0.536035 -1.427213 2.889315 -5.472294 -7.983122 -5.131587 -17.526643 5.046603 -5.381830 8.155070 3.066400 -2.603400 8.155300 -3.570515 3.409850 -3.076537 -81.809573 35.911424 39.875750 115.113781 -62.019825 -83.009789 -0.062463 -1.200891 -30.123334 25.434408 17.982421 9.055500 -7.125000 0.000000 0.000000 -2.152300 50.932700 -0.314700 1.438803 -2.523423 -1.483113 84.465383 -9.373856 41.829254 -139.536877 49.406981 -102.189592 1.338565 -1.265768 -3.937298 -16.776477 25.909967 -8.439600 7.125000 0.000000 0.000000 7.211700 -1.850700 7.031500 
0.675372 18.340070 2.392295 -3.225364 0.929775 8.782574 4.868018 2.809059 2.202070 -18.285820 -14.348738 -40.531369 6.636666 15.376187 48.244325 0.520127 -2.444852 7.902008 0.606100 -4.983300 -13.861000 -6.507130 -3.439030 -1.708554 32.277440 -3.616822 19.040489 -1.936866 -4.622275 16.140113 -0.982527 -14.689094 30.795416 -0.139400 -2.406000 6.629200 8.123420 3.719316 7.344631 1.892236 5.441868 -0.661707 -1.439755 2.927787 -5.597675 -8.166253 -5.251766 -17.546674 5.116132 -5.514673 8.579905 3.101800 -2.674500 8.325100 -3.565402 3.403552 -3.085043 -81.514576 36.445622 39.962384 115.720300 -61.849816 -83.696782 -0.063162 -0.809097 -30.288558 15.512555 7.981237 2.466400 -7.125000 0.000000 0.000000 -9.430300 38.810700 1.453100 1.433744 -2.513824 -1.483837 84.307134 -9.973150 42.121860 -139.158610 49.616348 -101.943595 1.350324 -1.248275 -4.198277 -16.862795 25.807925 -8.453100 7.125000 0.000000 0.000000 7.145200 -1.950900 6.952700 
0.677262 18.362347 2.840024 -3.616074 1.148612 8.709452 4.823355 2.786640 2.160523 -17.899459 -14.571353 -39.740988 5.557384 14.329126 43.990399 0.549046 -2.137284 9.160588 0.646300 -5.143000 -14.316900 -6.485692 -3.396477 -1.667496 32.987236 -2.918260 19.973465 -2.039133 -4.897484 17.057006 -0.737516 -15.022975 29.626265 -0.093300 -1.969900 5.422600 8.531000 3.743630 7.307326 1.910227 5.517767 -0.757168 -1.617854 2.947627 -5.712124 -8.257376 -5.327486 -17.771715 5.188353 -5.604761 9.086767 3.124900 -2.717100 8.556400 -3.552902 3.390282 -3.101099 -81.124835 36.887737 40.142856 116.762772 -61.626291 -84.448309 -0.101560 -0.768605 -30.138789 15.203087 6.682418 2.042800 -7.125000 0.000000 0.000000 -9.456700 37.408000 1.786300 1.434572 -2.505723 -1.484663 84.169329 -10.482067 42.336645 -138.745165 49.845694 -101.669406 1.352660 -1.237341 -4.324984 -16.807369 25.746222 -8.406300 7.125000 0.000000 0.000000 7.171800 -2.030300 6.968600 
0.673781 18.369408 3.274228 -4.001495 1.330276 8.650291 4.783510 2.765506 2.108449 -17.476872 -14.725331 -39.063567 4.624573 13.287181 40.039962 0.570205 -1.619984 10.368658 0.635200 -5.099200 -14.191700 -6.469893 -3.358497 -1.619610 33.783957 -2.136011 20.688914 -2.190663 -5.279648 18.367808 -0.541425 -14.635926 28.264552 -0.071300 -1.722400 4.739100 8.842174 3.789379 7.193801 1.956836 5.587393 -0.685437 -1.681543 2.979464 -5.493127 -8.291466 -5.391463 -18.019623 5.311735 -5.667982 9.029755 3.162200 -2.729200 8.593800 -3.545443 3.400245 -3.090684 -80.859156 36.788052 40.341023 117.671172 -61.413150 -85.101388 -0.120068 -0.742432 -29.842973 14.913693 6.151913 1.850300 -7.125000 0.000000 0.000000 -9.610300 36.818000 1.956400 1.451046 -2.512242 -1.487123 84.013910 -10.427621 42.657725 -138.232601 50.148317 -101.322601 1.347770 -1.215198 -4.582809 -16.626594 25.508439 -8.242500 7.125000 0.000000 0.000000 7.262000 -2.316800 7.019800 
0.668311 18.372988 3.712111 -4.171922 1.279472 8.640272 4.747482 2.746709 2.052169 -17.257068 -14.806204 -38.366701 3.843694 12.284529 36.467012 0.553078 -0.986831 10.930343 0.695500 -5.331100 -14.855500 -6.450663 -3.322923 -1.565966 34.333975 -1.197975 21.157771 -2.411116 -5.784031 20.123760 -0.407209 -13.600818 26.765478 -0.044000 -1.353600 3.722400 8.818164 3.916062 6.983220 1.982312 5.718540 -0.590782 -1.592031 3.053710 -5.204147 -8.458720 -5.493188 -18.163363 5.481871 -5.752912 8.983528 3.236800 -2.756400 8.621600 -3.548192 3.421351 -3.074750 -80.822496 36.464403 40.470770 118.208693 -61.275715 -85.487580 -0.121226 -0.737156 -29.647925 14.814230 6.307042 1.878300 -7.125000 0.000000 0.000000 -9.720400 36.965900 1.943700 1.470608 -2.518424 -1.488543 83.800955 -10.280886 42.961638 -137.610497 50.526234 -100.867106 1.333652 -1.253022 -5.024399 -15.967773 26.432521 -8.171700 7.125000 0.000000 0.000000 7.761200 -1.445200 7.633900 
0.664333 18.363839 4.148701 -4.343947 1.222301 8.559542 4.712127 2.736726 2.004180 -17.044501 -14.935483 -37.550019 3.210267 11.354247 33.321588 0.487103 -0.157000 10.960008 0.859900 -5.913200 -16.532900 -6.435407 -3.293568 -1.493626 34.869852 -0.330725 21.392400 -2.703141 -6.411537 22.322670 -0.346712 -11.983329 25.232707 -0.016700 -0.835600 2.296600 8.768963 3.997353 7.038996 1.995023 5.840496 -0.673551 -1.535883 3.108883 -5.398591 -8.466057 -5.499673 -17.940458 5.486471 -5.786435 9.149220 3.236400 -2.779500 8.640900 -3.548416 3.410403 -3.077532 -80.738943 36.568355 40.532949 118.589893 -61.175400 -85.762082 -0.120511 -0.730851 -29.113464 14.574596 6.473504 1.890300 -7.125000 0.000000 0.000000 -9.955000 37.119000 1.954000 1.478848 -2.508708 -1.490109 83.645527 -10.701672 43.199582 -136.918349 50.869683 -100.455487 1.377091 -1.088897 -5.395762 -17.198131 23.938442 -8.040100 7.125000 0.000000 0.000000 6.753100 -3.924800 6.319900 
0.662046 18.333307 4.584098 -4.594925 1.368639 8.504777 4.683626 2.732642 1.963655 -16.745483 -15.159926 -36.902233 2.717064 10.552979 30.684280 0.391045 0.904805 10.888209 0.894000 -6.026600 -16.861600 -6.431031 -3.277282 -1.410544 35.508287 0.370617 21.288416 -3.074929 -7.155663 24.912954 -0.346732 -10.297636 23.923628 -0.024000 -1.000200 2.749500 8.818243 3.937299 7.034014 2.047424 5.778793 -0.772264 -1.446687 3.072313 -5.600921 -8.489499 -5.494405 -17.738139 5.574084 -5.795487 9.177839 3.271300 -2.781300 8.621300 -3.545612 3.404229 -3.092799 -80.724702 36.738142 40.485519 119.072382 -61.053059 -86.033485 -0.101600 -0.853248 -28.427119 16.938711 10.574209 3.514600 -7.125000 0.000000 0.000000 -8.651200 41.627600 0.725700 1.487841 -2.492908 -1.486644 83.381994 -11.114249 43.654131 -136.238171 51.209994 -100.024277 1.431246 -0.964288 -5.733348 -18.639191 22.318222 -8.174100 7.125000 0.000000 0.000000 5.677400 -5.470600 5.136100 
